<svg id="Capa_1" enable-background="new 0 0 512 512" height="512" viewBox="0 0 512 512" width="512" xmlns="http://www.w3.org/2000/svg"><g><g><g><g><g><path d="m256 512c-68.38 0-132.667-26.629-181.02-74.98-48.351-48.353-74.98-112.64-74.98-181.02s26.629-132.667 74.98-181.02c48.353-48.351 112.64-74.98 181.02-74.98s132.667 26.629 181.02 74.98c48.351 48.353 74.98 112.64 74.98 181.02s-26.629 132.667-74.98 181.02c-48.353 48.351-112.64 74.98-181.02 74.98z" fill="#f5dd90"/></g></g></g></g><path d="m437.02 437.02c48.351-48.353 74.98-112.64 74.98-181.02s-26.629-132.667-74.98-181.02c-48.353-48.351-112.64-74.98-181.02-74.98v512c68.38 0 132.667-26.629 181.02-74.98z" fill="#efc277"/><g><g><path d="m256 451.75c-41.493 0-75.25-33.757-75.25-75.25s33.757-75.25 75.25-75.25 75.25 33.757 75.25 75.25-33.757 75.25-75.25 75.25z" fill="#efc277"/></g></g><g><g><path d="m135.5 271c-24.882 0-45.125-20.243-45.125-45.125s20.243-45.125 45.125-45.125 45.125 20.243 45.125 45.125-20.243 45.125-45.125 45.125z" fill="#efc277"/></g></g><g><path d="m376.5 210.75c-24.882 0-45.125-20.243-45.125-45.125s20.243-45.125 45.125-45.125 45.125 20.243 45.125 45.125-20.243 45.125-45.125 45.125z" fill="#e9a43a"/></g><g><g><path d="m376.5 331.25c7.846 0 15.363-6.899 15-15-.364-8.127-6.591-15-15-15-7.846 0-15.363 6.899-15 15 .364 8.127 6.591 15 15 15z" fill="#e9a43a"/></g></g><g><g><g><path d="m436.75 271c7.846 0 15.363-6.899 15-15-.364-8.127-6.591-15-15-15-7.846 0-15.363 6.899-15 15 .364 8.127 6.591 15 15 15z" fill="#e9a43a"/></g></g></g><g><g><g><g><path d="m195.75 150.5c7.846 0 15.363-6.899 15-15-.364-8.127-6.591-15-15-15-7.846 0-15.363 6.899-15 15 .364 8.127 6.591 15 15 15z" fill="#efc277"/></g></g></g></g><path d="m331.25 376.5c0-41.493-33.757-75.25-75.25-75.25v150.5c41.493 0 75.25-33.757 75.25-75.25z" fill="#e9a43a"/></g></svg>