<svg height="512" viewBox="0 0 64 64" width="512" xmlns="http://www.w3.org/2000/svg"><g id="Flat"><g id="Color"><g><path d="m57 12c-.115 0-.224.024-.336.034a6 6 0 0 0 -11.664 1.966c0 .063.008.124.009.187a2.962 2.962 0 0 0 -1.009-.187 3 3 0 0 0 0 6h13a4 4 0 0 0 0-8z" fill="#656b76"/><g><circle cx="32" cy="21" fill="#f9e109" r="18"/><g fill="#fcbc04"><path d="m41 35a18 18 0 0 1 -11.55-31.8 17.99 17.99 0 1 0 14.1 31.6 18.013 18.013 0 0 1 -2.55.2z"/><circle cx="33" cy="9" r="2"/><circle cx="24" cy="14" r="3"/></g><path d="m24.027 11h-.027a2.993 2.993 0 0 0 -1 5.818 17.959 17.959 0 0 1 .687-4.73 3 3 0 0 1 2.313 2.912 2.965 2.965 0 0 1 -.446 1.554 2.99 2.99 0 0 0 -1.527-5.554z" fill="#e59730"/><path d="m33 7a2 2 0 0 0 -1.82 1.18 1.992 1.992 0 0 1 2.64 2.64 2 2 0 0 0 -.82-3.82z" fill="#e59730"/></g><path d="m36 33a4.952 4.952 0 0 0 -2.136.5 5.973 5.973 0 0 0 -6.764-2.186 7.991 7.991 0 0 0 -14.84 1.712c-.091-.005-.172-.026-.26-.026a4.988 4.988 0 0 0 -4.92 4.208 3 3 0 1 0 -1.08 5.792h30a5 5 0 0 0 0-10z" fill="#656b76"/><path d="m57 56c-.047 0-.091.011-.137.014a3.931 3.931 0 0 0 -5.131-2.79 6 6 0 0 0 -11.732 1.776 3 3 0 0 0 -2.916 2.323 2 2 0 1 0 -1.084 3.677h17a3.975 3.975 0 0 0 2.942-1.309 2 2 0 1 0 1.058-3.691z" fill="#656b76"/><path d="m57 56c-.047 0-.091.011-.137.014a3.931 3.931 0 0 0 -5.131-2.79 6 6 0 0 0 -10.851-1.343 5.99 5.99 0 0 1 8.851 3.343 3.931 3.931 0 0 1 5.131 2.79c.046 0 .09-.014.137-.014a2 2 0 0 1 2 2 2 2 0 0 0 0-4z" fill="#93999a"/><path d="m36 33a4.952 4.952 0 0 0 -2.136.5 5.973 5.973 0 0 0 -6.764-2.186 7.985 7.985 0 0 0 -14.564.856 7.986 7.986 0 0 1 12.564 2.144 5.973 5.973 0 0 1 6.764 2.186 4.974 4.974 0 0 1 7.012 5.584 4.993 4.993 0 0 0 -2.876-9.084z" fill="#93999a"/><path d="m57 12c-.115 0-.224.024-.336.034a5.993 5.993 0 0 0 -9.051-2.985 5.991 5.991 0 0 1 5.051 3.985c.112-.01.221-.034.336-.034a3.985 3.985 0 0 1 2.62 7h1.38a4 4 0 0 0 0-8z" fill="#93999a"/><circle cx="21" cy="24" fill="#e59730" r="1"/><circle cx="31" cy="19" fill="#fcbc04" r="1"/><g fill="#f9e109"><path d="m60.5 47h-.5v-.5a1 1 0 0 0 -2 0v.5h-.5a1 1 0 0 0 0 2h.5v.5a1 1 0 0 0 2 0v-.5h.5a1 1 0 0 0 0-2z"/><path d="m51.5 39h-.5v-.5a1 1 0 0 0 -2 0v.5h-.5a1 1 0 0 0 0 2h.5v.5a1 1 0 0 0 2 0v-.5h.5a1 1 0 0 0 0-2z"/><path d="m31.5 50h-.5v-.5a1 1 0 0 0 -2 0v.5h-.5a1 1 0 0 0 0 2h.5v.5a1 1 0 0 0 2 0v-.5h.5a1 1 0 0 0 0-2z"/><path d="m9.5 9h-.5v-.5a1 1 0 0 0 -2 0v.5h-.5a1 1 0 0 0 0 2h.5v.5a1 1 0 0 0 2 0v-.5h.5a1 1 0 0 0 0-2z"/><path d="m7.5 26h-.5v-.5a1 1 0 0 0 -2 0v.5h-.5a1 1 0 0 0 0 2h.5v.5a1 1 0 0 0 2 0v-.5h.5a1 1 0 0 0 0-2z"/></g></g></g></g></svg>