<svg id="Layer_1" enable-background="new 0 0 512.177 512.177" height="512" viewBox="0 0 512.177 512.177" width="512" xmlns="http://www.w3.org/2000/svg"><g><g><path d="m175.439 327.325h61.098v30h-61.098z" fill="#aed0ff" transform="matrix(.395 -.919 .919 .395 -189.836 396.558)"/></g><g><path d="m254.966 327.325h61.098v30h-61.098z" fill="#aed0ff" transform="matrix(.395 -.919 .919 .395 -141.683 469.634)"/></g><g><path d="m254.966 327.325h61.098v30h-61.098z" fill="#6aa9ff" transform="matrix(.395 -.919 .919 .395 -141.683 469.634)"/></g><g><path d="m334.492 327.325h61.098v30h-61.098z" fill="#aed0ff" transform="matrix(.395 -.919 .919 .395 -93.53 542.71)"/></g><g><path d="m334.492 327.325h61.098v30h-61.098z" fill="#6aa9ff" transform="matrix(.395 -.919 .919 .395 -93.53 542.71)"/></g><g><path d="m95.913 327.325h61.098v30h-61.098z" fill="#aed0ff" transform="matrix(.395 -.919 .919 .395 -237.989 323.486)"/></g><g><path d="m100.836 432.164h84.644v30h-84.644z" fill="#aed0ff" transform="matrix(.395 -.919 .919 .395 -324.215 402.303)"/></g><g><path d="m180.362 432.164h84.644v30h-84.644z" fill="#aed0ff" transform="matrix(.395 -.919 .919 .395 -276.062 475.379)"/></g><g><path d="m259.889 432.164h84.644v30h-84.644z" fill="#aed0ff" transform="matrix(.395 -.919 .919 .395 -227.909 548.455)"/></g><g><path d="m339.415 432.164h84.644v30h-84.644z" fill="#aed0ff" transform="matrix(.395 -.919 .919 .395 -179.756 621.531)"/></g><path d="m437.135 133.255c-4.726-29.373-19.055-56.335-41.064-76.875-24.995-23.327-57.6-36.174-91.807-36.174-27.374 0-53.723 8.174-76.198 23.637-18.759 12.907-33.789 30.128-43.949 50.242-2.301-.135-4.604-.202-6.901-.202-50.537 0-94.794 31.913-111.118 78.829-16.464 2.655-31.62 10.452-43.511 22.549-14.566 14.818-22.587 34.424-22.587 55.205 0 43.443 35.344 78.788 78.787 78.788h333.856c54.883 0 99.533-44.65 99.533-99.533.001-45.885-31.524-85.449-75.041-96.466z" fill="#ebebf0"/><g><path d="m259.889 432.164h84.644v30h-84.644z" fill="#6aa9ff" transform="matrix(.395 -.919 .919 .395 -227.909 548.455)"/></g><g><path d="m339.415 432.164h84.644v30h-84.644z" fill="#6aa9ff" transform="matrix(.395 -.919 .919 .395 -179.756 621.531)"/></g><path d="m437.135 133.255c-4.726-29.373-19.055-56.335-41.064-76.875-24.995-23.327-57.6-36.174-91.807-36.174-16.654 0-32.922 3.043-48.175 8.895v300.153h156.555c54.883 0 99.533-44.65 99.533-99.533 0-45.885-31.525-85.449-75.042-96.466z" fill="#d2d2d7"/></g></svg>