<?xml version="1.0" encoding="iso-8859-1"?>
<!-- Generator: Adobe Illustrator 19.0.0, SVG Export Plug-In . SVG Version: 6.00 Build 0)  -->
<svg version="1.1" id="Layer_1" xmlns="http://www.w3.org/2000/svg" xmlns:xlink="http://www.w3.org/1999/xlink" x="0px" y="0px"
	 viewBox="0 0 512 512" style="enable-background:new 0 0 512 512;" xml:space="preserve">
<path style="fill:#EAEAEA;" d="M417.392,153.976h-7.584c-7.536-31.712-36.128-55.472-70.336-55.472
	c-8.304,0-16.72,1.824-23.68,4.144c-16.72-47.424-62.032-81.488-115.44-81.488c-67.616,0-122.448,54.512-122.448,121.744
	c0,4.224,0.224,8.416,0.64,12.528C34.112,163.08,0,201.752,0,248.04c0,51.744,42.576,94.064,94.608,94.064h322.784
	c52.032,0,94.608-42.336,94.608-94.064S469.424,153.976,417.392,153.976z"/>
<path style="fill:#E04F5F;" d="M214.928,385.624l-0.464-11.936c-1.376-23.44,6.432-47.328,27.088-72.144
	c14.688-17.456,26.608-32.16,26.608-47.776c0-16.08-10.544-26.656-33.504-27.568c-15.136,0-33.52,5.52-45.44,13.776l-15.616-50.08
	c16.528-9.648,44.064-18.848,76.656-18.848c60.576,0,88.128,33.552,88.128,71.68c0,34.928-21.584,57.888-39.008,77.184
	c-16.992,18.848-23.872,36.768-23.408,57.44v8.272L214.928,385.624L214.928,385.624z M202.992,449.032
	c0-24.336,16.992-41.792,40.848-41.792c24.8,0,40.864,17.456,41.312,41.792c0,23.904-16.512,41.808-41.312,41.808
	C219.52,490.84,202.992,472.936,202.992,449.032z"/>
<g>
</g>
<g>
</g>
<g>
</g>
<g>
</g>
<g>
</g>
<g>
</g>
<g>
</g>
<g>
</g>
<g>
</g>
<g>
</g>
<g>
</g>
<g>
</g>
<g>
</g>
<g>
</g>
<g>
</g>
</svg>
