<svg height="512" viewBox="0 0 59 59" width="512" xmlns="http://www.w3.org/2000/svg"><g id="Page-1" fill="none" fill-rule="evenodd"><g id="007---UV-Protective-Fabric" fill-rule="nonzero"><circle id="Oval" cx="29" cy="20" fill="#f0c419" r="13"/><g fill="#d25627"><path id="Shape" d="m29 5c-.5522847 0-1-.44771525-1-1v-3c0-.55228475.4477153-1 1-1s1 .44771525 1 1v3c0 .55228475-.4477153 1-1 1z"/><path id="Shape" d="m21 7.144c-.3576137.00034843-.6881932-.19029718-.867-.5l-1.5-2.6c-.2716903-.47785996-.1067416-1.08542045.3693057-1.36027453s1.0846885-.11393908 1.3626943.36027453l1.5 2.6c.1785415.30924248.1786393.6902222.0002566.99955632-.1783827.30933411-.5081742.50007763-.8652566.50044368z"/><path id="Shape" d="m15.143 13c-.1755887.0003718-.3481299-.0458692-.5-.134l-2.6-1.5c-.4742136-.2780058-.6351286-.886647-.3602745-1.3626943.274854-.47604727.8824145-.64099599 1.3602745-.3693057l2.6 1.5c.3919413.2263139.5830208.6876562.4658809 1.1248223-.1171398.4371661-.5132928.7411578-.9658809.7411777z"/><path id="Shape" d="m13 21h-3c-.55228475 0-1-.4477153-1-1s.44771525-1 1-1h3c.5522847 0 1 .4477153 1 1s-.4477153 1-1 1z"/><path id="Shape" d="m48 21h-3c-.5522847 0-1-.4477153-1-1s.4477153-1 1-1h3c.5522847 0 1 .4477153 1 1s-.4477153 1-1 1z"/><path id="Shape" d="m42.857 13c-.4525881-.0000199-.8487411-.3040116-.9658809-.7411777-.1171399-.4371661.0739396-.8985084.4658809-1.1248223l2.6-1.5c.47786-.27169029 1.0854205-.10674157 1.3602745.3693057.2748541.4760473.1139391 1.0846885-.3602745 1.3626943l-2.6 1.5c-.1518701.0881308-.3244113.1343718-.5.134z"/><path id="Shape" d="m37 7.144c-.3570824-.00036605-.6868739-.19110957-.8652566-.50044368-.1783827-.30933412-.1782849-.69031384.0002566-.99955632l1.5-2.6c.2780058-.47421361.886647-.63512861 1.3626943-.36027453s.640996.88241457.3693057 1.36027453l-1.5 2.6c-.1788068.30970282-.5093863.50034843-.867.5z"/></g><path id="Shape" d="m24 25c-2.209139 0-4-1.790861-4-4v-5c0-.5522847.4477153-1 1-1s1 .4477153 1 1v5c0 1.1045695.8954305 2 2 2s2-.8954305 2-2v-5c0-.5522847.4477153-1 1-1s1 .4477153 1 1v5c0 2.209139-1.790861 4-4 4z" fill="#c03a2b"/><path id="Shape" d="m34 25c-.4171213.0002605-.7905905-.2584177-.937-.649l-3-8c-.1932997-.5174908.0695092-1.0937003.587-1.287s1.0937003.0695092 1.287.587l2.063 5.501 2.063-5.5c.1932997-.5174908.7695092-.7802997 1.287-.587s.7802997.7695092.587 1.287l-3 8c-.1467373.3901885-.5201322.6484168-.937.648z" fill="#c03a2b"/><path id="Shape" d="m11.62 28.443-4.913 5.732c-.12686473.1483213-.15582759.3569048-.07417357.5341799.08165403.1772752.25899706.2908329.45417357.2908201h2.413c.27614237 0 .5.2238576.5.5v9.5h4v-9.5c0-.2761424.2238576-.5.5-.5h2.413c.1951765.0000128.3725195-.1135449.4541736-.2908201.081654-.1772751.0526911-.3858586-.0741736-.5341799l-4.913-5.732c-.0949941-.1110832-.2338379-.1750385-.38-.1750385s-.2850059.0639553-.38.1750385z" fill="#4fba6f"/><path id="Rectangle-path" d="m2.111 48h54v8h-54z" fill="#c03a2b"/><path id="Shape" d="m11.111 49-4 6h-5l4-6z" fill="#d25627"/><path id="Shape" d="m21.111 49-4 6h-5l4-6z" fill="#d25627"/><path id="Shape" d="m31.111 49-4 6h-5l4-6z" fill="#d25627"/><path id="Shape" d="m41.111 49-4 6h-5l4-6z" fill="#d25627"/><path id="Shape" d="m51.111 49-4 6h-5l4-6z" fill="#d25627"/><path id="Shape" d="m58.111 57c-.0032948 1.1032019-.8967981 1.9967052-2 2h-54c-.53059053.0028231-1.0395388-.2101411-1.41-.59-.3798589-.3704612-.59282307-.8794095-.59-1.41.0032948-1.1032019.89679813-1.9967052 2-2h54c1.1011688.0081672 1.9918328.8988312 2 2z" fill="#f0c419"/><path id="Shape" d="m58.11 47c-.0032948 1.1032019-.8967981 1.9967052-2 2h-54c-.53059053.0028231-1.0395388-.2101411-1.41-.59-.3798589-.3704612-.59282307-.8794095-.59-1.41.0032948-1.1032019.89679813-1.9967052 2-2h54c1.1011688.0081672 1.9918328.8988312 2 2z" fill="#f0c419"/><path id="Shape" d="m33.04 41h-1.43c-.2761424 0-.5.2238576-.5.5v3.5h-4v-3.5c0-.2761424-.2238576-.5-.5-.5h-1.43c-.1950383.0022786-.3735971-.1090688-.457373-.2852129-.0837758-.176144-.0574733-.3849255.067373-.5347871l2.75-3.29 1.19-1.43c.1673471-.2068754.4692101-.2423887.68-.08.0291269.0240874.0559126.0508731.08.08h.01l.57.69 3.36 4.03c.1248463.1498616.1511488.3586431.067373.5347871-.0837759.1761441-.2623347.2874915-.457373.2852129z" fill="#4fba6f"/><path id="Shape" d="m33.04 41h-1.43c-.2761424 0-.5.2238576-.5.5v3.5h-2.17v-5.11c.0555598-.8064259-.1667794-1.6075528-.63-2.27-.2108172-.2875363-.4716367-.5348068-.77-.73l1.19-1.43c.1673471-.2068754.4692101-.2423887.68-.08.0291269.0240874.0559126.0508731.08.08l.58.69 3.36 4.03c.1248463.1498616.1511488.3586431.067373.5347871-.0837759.1761441-.2623347.2874915-.457373.2852129z" fill="#24ae5f"/><path id="Shape" d="m16.91 35h-2.41c-.2761424 0-.5.2238576-.5.5v9.5h-2v-12.52c-.1609956-1.0492785-.8645279-1.9353488-1.85-2.33l1.47-1.71c.0949941-.1110832.2338379-.1750385.38-.1750385s.2850059.0639553.38.1750385l4.91 5.73c.1301381.1481185.1610793.3588858.0790029.538158-.0820764.1792721-.261843.2935708-.4590029.291842z" fill="#24ae5f"/><path id="Shape" d="m45.62 28.443-4.913 5.732c-.1268647.1483213-.1558276.3569048-.0741736.5341799.0816541.1772752.2589971.2908329.4541736.2908201h2.413c.2761424 0 .5.2238576.5.5v9.5h4v-9.5c0-.2761424.2238576-.5.5-.5h2.413c.1951765.0000128.3725195-.1135449.4541736-.2908201.081654-.1772751.0526911-.3858586-.0741736-.5341799l-4.913-5.732c-.0949941-.1110832-.2338379-.1750385-.38-.1750385s-.2850059.0639553-.38.1750385z" fill="#4fba6f"/><path id="Shape" d="m50.91 35h-2.41c-.2761424 0-.5.2238576-.5.5v9.5h-2v-12.52c-.1609956-1.0492785-.8645279-1.9353488-1.85-2.33l1.47-1.71c.0949941-.1110832.2338379-.1750385.38-.1750385s.2850059.0639553.38.1750385l4.91 5.73c.1301381.1481185.1610793.3588858.0790029.538158-.0820764.1792721-.261843.2935708-.4590029.291842z" fill="#24ae5f"/></g></g></svg>